<?xml version="1.0" encoding="utf-8" ?><svg xmlns="http://www.w3.org/2000/svg" xmlns:xlink="http://www.w3.org/1999/xlink" width="155" height="220" viewBox="0 0 155 220"><path fill="#F3F2F3" d="M151.826 2.71605C152.181 2.79458 152.111 2.82038 152.418 3.12433C152.573 22.6736 137.261 30.0457 120.745 33.4289C101.934 37.2824 90.3661 44.752 80.4337 61.247C71.08 48.1525 59.4433 37.9115 43.3632 34.3854C36.1886 32.8121 28.3587 31.4553 21.5638 28.6133C20.9641 28.4691 20.6275 28.2736 20.0785 28.0511C11.1134 24.418 2.95311 16.1951 2.67672 6.07366C2.64281 4.83177 2.38641 3.84907 2.04433 2.64656C13.4969 8.76348 26.8212 11.5788 39.7132 12.5332C44.1864 12.8644 52.6088 10.7624 57.4773 10.1581C74.5177 8.04302 91.7196 8.0473 108.644 11.1529C114.107 12.1482 114.564 12.7099 120.275 12.1763C132.219 11.0605 141.315 8.35866 151.826 2.71605Z"/><path fill="#F3F2F3" d="M20.1363 94.0644C21.7171 94.8281 24.6788 97.3094 26.5985 98.3159C30.8404 100.54 36.3461 102.082 40.0584 104.902C43.9902 107.889 46.5815 117.423 47.0529 122.283C48.3529 137.65 45.7956 155.162 41.4057 169.942C38.7337 178.939 31.7943 195.274 26.0565 202.225C24.8808 203.961 15.6437 214.339 13.9322 213.604C13.4692 212.817 15.4004 193.392 15.4644 190.706C15.583 185.729 15.6097 179.796 15.6497 174.68C15.6841 170.289 15.3532 166 15.0512 161.604C14.7954 144.697 10.4892 127.777 13.9381 110.997C15.32 104.274 16.7577 99.9507 20.1363 94.0644Z"/><path fill="#F3F2F3" d="M136.598 36.0253C140.966 35.385 146.895 48.6096 147.603 52.396C149.17 60.78 148.405 69.4292 143.749 76.7291C138.458 85.0227 131.591 90.8923 121.884 92.9957C109.537 95.6844 100.464 92.3176 90.2177 85.8706C87.3568 89.5267 85.3423 94.5047 81.7284 99.1191C80.25 97.1507 78.6373 94.1458 77.105 92.0108C75.6351 89.9626 73.796 87.6093 72.5079 85.5458C69.009 88.4471 63.668 91.0443 59.3709 92.4847C29.2213 102.59 1.73066 71.3948 15.9004 42.7481C17.5329 40.1195 18.8922 38.3785 21.5607 36.7866C23.1775 37.2995 25.8147 37.7103 27.5618 38.0269C26.1559 39.9766 23.7212 43.0477 22.7272 45.2227C12.8372 66.8617 31.7751 92.8063 55.7058 85.4996C64.9547 82.6756 69.5766 76.4683 75.4505 69.3756C77.6281 71.8349 79.1143 74.7241 81.4823 76.9611C82.4191 75.1478 85.2266 71.0484 86.445 69.486C86.8245 69.952 87.2072 70.4153 87.5932 70.8759C94.1013 78.6399 101.472 85.6668 112.004 86.4044C125.615 87.3578 139.799 74.7697 140.484 61.0441C141.026 50.2039 138.528 46.0199 131.917 38.1621C133.766 36.9138 134.435 36.6629 136.598 36.0253Z"/><path fill="#F3F2F3" d="M141.86 92.683C144.368 93.4512 145.72 103.443 145.985 105.996C151.371 157.942 108.683 201.779 60.197 212.314C54.4944 213.553 49.9207 214.959 43.9632 215.565C42.7207 215.76 41.4822 215.979 40.2483 216.222C41.742 214.142 44.4683 211.058 46.6091 209.746C57.5547 203.039 70.2461 199.253 81.679 193.485C89.7472 189.479 97.2834 184.481 104.113 178.606C124.786 161.148 134.164 141.387 135.37 114.523C135.528 111.012 134.205 105.746 134.35 102.23C134.473 99.231 139.55 94.5894 141.86 92.683Z"/><path fill="#F3F2F3" d="M109.396 47.1232C116.781 46.0754 123.613 51.2212 124.646 58.6081C125.679 65.995 120.519 72.8172 113.13 73.8346C105.762 74.849 98.964 69.7074 97.9344 62.342C96.9048 54.9766 102.032 48.1679 109.396 47.1232ZM113.145 67.4921C116.085 65.4988 117.715 64.7644 118.948 61.4029C117.493 56.2524 115.63 52.5806 109.4 53.2339C99.1669 56.5191 105.153 70.1155 113.145 67.4921Z"/><path fill="#F3F2F3" d="M48.2542 47.3789C55.5354 46.4617 62.197 51.5795 63.1872 58.8511C64.1774 66.1228 59.1268 72.8354 51.8655 73.8986C47.103 74.5959 42.3329 72.682 39.3731 68.8863C36.4133 65.0906 35.7198 59.9979 37.5569 55.549C39.394 51.1001 43.4787 47.9804 48.2542 47.3789ZM50.7131 67.852C54.6915 66.7067 57.7081 62.8933 56.4629 58.6732C55.9324 56.8302 54.6811 55.2791 52.992 54.3708C52.3175 54.0094 50.5014 53.2469 49.7645 53.2022C47.3527 54.2806 44.2316 55.3115 43.2915 58.024C41.4753 63.2643 45.5232 67.6258 50.7131 67.852Z"/></svg>