<svg xmlns="http://www.w3.org/2000/svg" xmlns:xlink="http://www.w3.org/1999/xlink" width="2000" zoomAndPan="magnify" viewBox="0 0 1500 1499.999933" height="2000" preserveAspectRatio="xMidYMid meet" version="1.0"><path fill="#fefefe" d="M 677.632812 73.152344 C 873.886719 60.132812 1038.8125 101.75 1192.363281 229.910156 C 1242.105469 179.378906 1258.726562 139.289062 1278.273438 73.132812 C 1285.84375 158.566406 1271.984375 213.609375 1258.246094 297.007812 C 1263.375 300.816406 1270.984375 306.957031 1275.027344 311.566406 C 1382.042969 434.101562 1436.589844 592.628906 1436.789062 751.585938 C 1437.191406 933.445312 1364.179688 1107.78125 1234.257812 1235.101562 C 1104.414062 1364.0625 928.15625 1435.46875 745.125 1433.1875 C 591.816406 1432.066406 403.558594 1370.550781 295.242188 1259.730469 C 306.984375 1168.816406 347.425781 1094.886719 390.765625 1015.425781 C 469.175781 1052.230469 508.242188 1062.445312 597.375 1059.960938 C 837.921875 1053.234375 996.402344 946.78125 1116.351562 739.453125 C 1190.5625 605.871094 1234.257812 441.570312 1255.84375 290.75 C 1232.855469 272.191406 1217.875 253.195312 1192.285156 236.683594 C 1019.628906 394.078125 826.109375 389.265625 629.132812 498.691406 C 442.757812 602.234375 338.621094 726.828125 363.03125 944.175781 C 429.695312 875.570312 463.679688 851.460938 544.585938 799.515625 C 500.027344 846.214844 423.382812 917.222656 386.300781 964.640625 C 338.160156 1026.199219 283.097656 1140.460938 246.113281 1213.234375 C 151.535156 1113.148438 90.21875 986.269531 70.550781 849.980469 C 43.636719 669.15625 91.027344 485.144531 201.941406 339.828125 C 321.6875 182.609375 484.203125 98.699219 677.632812 73.152344 Z M 677.632812 73.152344 " fill-opacity="1" fill-rule="nonzero"/></svg>