<svg xmlns="http://www.w3.org/2000/svg" xmlns:xlink="http://www.w3.org/1999/xlink" width="2000" zoomAndPan="magnify" viewBox="0 0 1500 1499.999933" height="2000" preserveAspectRatio="xMidYMid meet" version="1.0"><path fill="#ff5a00" d="M 677.371094 72.910156 C 873.617188 59.890625 1038.535156 101.507812 1192.082031 229.660156 C 1241.820312 179.132812 1258.441406 139.042969 1277.984375 72.890625 C 1285.554688 158.324219 1271.699219 213.363281 1257.960938 296.757812 C 1263.085938 300.566406 1270.695312 306.707031 1274.742188 311.316406 C 1381.75 433.84375 1436.296875 592.367188 1436.496094 751.316406 C 1436.898438 933.171875 1363.890625 1107.5 1233.972656 1234.816406 C 1104.132812 1363.773438 927.878906 1435.179688 744.859375 1432.894531 C 591.554688 1431.773438 403.304688 1370.257812 294.988281 1259.445312 C 306.730469 1168.535156 347.171875 1094.605469 390.507812 1015.148438 C 468.917969 1051.953125 507.984375 1062.167969 597.113281 1059.683594 C 837.652344 1052.953125 996.125 946.507812 1116.070312 739.1875 C 1190.277344 605.609375 1233.972656 441.3125 1255.558594 290.5 C 1232.570312 271.941406 1217.589844 252.945312 1192 236.433594 C 1019.351562 393.824219 825.835938 389.011719 628.871094 498.433594 C 442.5 601.972656 338.367188 726.5625 362.777344 943.902344 C 429.441406 875.300781 463.421875 851.191406 544.324219 799.246094 C 499.769531 845.945312 423.125 916.949219 386.042969 964.367188 C 337.90625 1025.921875 282.847656 1140.179688 245.863281 1212.949219 C 151.289062 1112.867188 89.972656 985.992188 70.308594 849.707031 C 43.394531 668.894531 90.78125 484.886719 201.691406 339.574219 C 321.433594 182.363281 483.945312 98.453125 677.371094 72.910156 Z M 677.371094 72.910156 " fill-opacity="1" fill-rule="nonzero"/></svg>