<?xml version="1.0" encoding="utf-8" ?><svg xmlns="http://www.w3.org/2000/svg" xmlns:xlink="http://www.w3.org/1999/xlink" width="1024" height="201" viewBox="0 0 1024 201"><path fill="#FEFEFE" d="M589.549 45.1864C626.888 41.1348 660.745 65.5641 669.492 102.109C671.797 111.736 671.485 122.747 671.453 132.602L671.51 158.154C671.481 181.841 660.389 191.591 637.297 191.534C636.882 187.706 637.034 181.7 637.019 177.704C629.71 183.109 624.539 185.56 616.151 188.458C611.754 189.741 607.249 190.617 602.691 191.075C584.333 193.083 565.933 187.672 551.584 176.045C536.133 163.672 526.359 145.564 524.493 125.857C520.339 85.628 549.273 49.3224 589.549 45.1864ZM598.745 157.659C620.548 157.024 637.694 138.809 637.011 117.007C636.328 95.2048 618.076 78.0985 596.276 78.8287C574.542 79.5567 557.499 97.7409 558.18 119.476C558.861 141.211 577.008 158.293 598.745 157.659Z"/><path fill="#FEFEFE" d="M285.238 44.717C292.905 43.5552 309.908 47.7557 316.882 51.2047C338.585 61.9384 348.804 75.5044 356.875 97.3372C351.492 101.509 339.28 108.958 333.149 112.955L283.111 145.653C282.854 145.326 282.603 144.995 282.358 144.659C277.327 137.679 275.25 128.997 276.575 120.496C279.678 100.952 295.498 96.7799 309.912 86.3119C309.707 86.1584 309.499 86.0087 309.288 85.8628C300.078 79.4944 290.652 77.0399 279.492 79.0598C269.048 81.038 259.828 87.1082 253.884 95.9197C242.923 111.826 245.225 134.532 260.011 147.196C262.139 149.019 264.234 150.497 266.544 152.08C271.469 154.846 276.902 156.587 282.517 157.199C296.57 158.668 304.94 153.555 315.241 145.199C324.555 144.526 344.56 145.098 354.456 145.096C351.375 153.045 346.873 160.367 341.17 166.704C328.427 181.022 310.55 189.734 291.422 190.948C271.583 192.241 252.063 185.471 237.285 172.173C222.958 159.415 214.514 140.787 213.444 121.695C212.375 102.572 218.897 83.7992 231.593 69.4582C246.269 53.058 263.589 45.9163 285.238 44.717Z"/><path fill="#FEFEFE" d="M892.76 45.1725C895.336 44.937 899.057 44.887 901.708 44.948C920.661 45.4891 938.639 53.4695 951.753 67.1631C956.984 72.6287 969.008 89.4003 968.837 97.143C968.081 99.383 946.981 112.42 943.842 114.466L895.765 145.909C895.178 145.094 894.614 144.263 894.071 143.417C883.821 127.32 889.124 107.601 905.164 97.7771C911.039 94.1789 917.013 90.206 922.873 86.5165C914.022 80.4199 905.185 77.5409 894.381 78.9377C883.775 80.3174 874.173 85.9178 867.751 94.4708C861.411 102.884 858.665 113.468 860.117 123.902C861.622 134.992 867.404 143.439 876.171 150.124C880.184 153.767 889.676 157.002 895.171 157.383C909.9 158.406 917.213 154.146 927.863 145.41C939.428 144.868 955.304 145.378 967.211 145.387C964.42 152.101 961.281 157.702 956.763 163.439C944.808 178.616 927.34 188.454 908.164 190.809C888.718 193.095 869.158 187.588 853.762 175.49C838.482 163.407 828.671 145.713 826.516 126.352C824.314 106.972 829.91 87.5112 842.07 72.2607C854.908 56.1297 872.489 47.4555 892.76 45.1725Z"/><path fill="#FEFEFE" d="M435.66 44.7167C448.477 43.5211 466.016 47.9168 476.848 54.9473C478.67 56.1297 485.373 60.6596 486.882 60.9543C490.944 58.7742 494.211 49.7725 496.015 45.4762C496.269 54.9209 495.423 59.6531 493.604 68.7447C505.333 83.3832 512.08 96.0761 512.72 115.591C513.365 135.066 506.217 153.995 492.86 168.183C479.502 182.366 461.057 190.662 441.583 191.247C423.589 191.774 403.917 185.044 390.74 172.603C392.476 162.204 396.154 155.149 401.106 146.09C401.569 146.373 402.041 146.639 402.522 146.888C413.959 152.937 429.796 151.787 441.821 148.197C459.486 142.922 471.791 129.093 480.173 113.22C487.529 98.6291 490.394 84.4093 493.424 68.5508L486.785 62.4382C469.285 79.054 448.394 79.0165 428.055 89.9928C407.219 101.238 395.92 114.606 398.163 138.764C404.156 131.523 410.369 127.606 418.091 122.374C412.096 129.525 404.196 135.291 399 143.275C393.912 151.092 389.872 159.407 385.726 167.741C374.299 155.563 367.429 139.811 366.28 123.151C364.897 103.815 371.155 84.7075 383.71 69.9363C397.245 54.137 415.193 46.2741 435.66 44.7167Z"/><path fill="#FEFEFE" d="M124.255 44.7134C125.79 44.5953 127.33 44.5475 128.87 44.5701C148.127 44.7711 166.497 52.6919 179.862 66.5567C189.792 76.8686 196.716 89.6978 199.885 103.658C201.915 112.506 201.714 122.966 201.6 132.09C201.352 151.838 201.911 171.702 201.609 191.429C185.38 192.256 170.268 183.959 167.781 166.857C165.311 149.875 169.454 128.273 166.436 111.69C165.351 105.746 162.992 100.108 159.522 95.1622C152.833 85.6932 143.8 81.0264 132.609 79.0918C131.47 79.0077 130.33 78.9519 129.188 78.9246C118.678 78.6348 108.494 82.5888 100.933 89.8947C95.577 94.9967 91.7764 101.512 89.9717 108.686C88.2553 115.789 88.9866 131.37 88.9367 139.353C88.8288 156.641 89.2553 174.091 88.9598 191.394L54.846 191.433C54.8372 191.336 54.8291 191.24 54.8216 191.144C54.1296 182.33 54.4727 163.587 54.5879 154.31C54.7708 139.585 53.3409 114.997 56.3405 101.75C58.9468 90.1199 64.3328 79.2951 72.0373 70.2019C85.7114 54.1926 103.535 46.3266 124.255 44.7134Z"/><path fill="#FEFEFE" d="M768.876 10.4611C780.422 10.5275 791.968 10.4691 803.513 10.2857L803.455 44.7619C812.305 44.8417 821.155 44.8603 830.006 44.8176C830.076 46.4889 830.126 48.161 830.156 49.8335C830.415 67.4361 821.751 78.9048 803.464 79.1245C803.9 106.934 803.49 135.85 803.492 163.75L803.493 191.456C792.389 191.788 779.755 191.497 768.527 191.506C767.953 151.629 768.485 110.599 768.463 70.6241L768.414 32.7025C768.406 26.6803 768.126 16.0289 768.876 10.4611Z"/><path fill="#FEFEFE" d="M748.46 45.1867C750.166 44.938 754.503 44.8439 756.411 44.7475C757.325 53.4358 756.439 62.6314 756.887 71.3123C757.371 80.6835 754.318 78.6354 746.8 80.5465C739.962 82.29 733.715 85.8311 728.706 90.8026C715.082 104.509 717.718 126.099 717.73 144.041L717.867 191.468L693.514 191.486L683.11 191.521C682.369 171.034 683.461 149.948 682.973 129.415C682.756 120.287 682.922 110.844 684.914 101.91C687.281 91.3398 691.935 81.4166 698.549 72.8382C711.04 56.6728 728.31 47.769 748.46 45.1867Z"/></svg>