<?xml version="1.0" encoding="utf-8" ?><svg xmlns="http://www.w3.org/2000/svg" xmlns:xlink="http://www.w3.org/1999/xlink" width="2000" height="2000" viewBox="0 0 2000 2000"><path fill="#FF5B00" d="M966.232 0L1030.22 0C1045.66 2.33628 1066.32 1.99367 1082.48 3.247C1116.6 6.07641 1150.56 10.5914 1184.24 16.7753C1427.29 62.3308 1644.86 196.293 1794.96 392.813C1893.77 521.991 1959.51 673.359 1986.47 833.746C1991.23 862.373 1994.77 891.19 1997.09 920.118C1997.64 927.491 1999.02 962.753 2000 967.278L2000 1031.98L1999.86 1032.96C1998.09 1046.06 1997.85 1070.61 1996.58 1085.68C1993.48 1122.51 1988.31 1159.14 1981.1 1195.39C1933.63 1433.73 1800.96 1646.61 1607.92 1794.23C1477.39 1894.56 1324 1960.92 1161.5 1987.36C1135.96 1991.62 1110.24 1994.72 1084.42 1996.66C1074.53 1997.41 1047.64 1998.46 1039.78 2000L964.33 2000C959.825 1998.97 924.445 1997.42 917.287 1996.85C888.563 1994.45 859.954 1990.83 831.535 1986.01C669.726 1958.52 517.223 1891.45 387.597 1790.77C198.344 1644.3 67.8853 1434.83 19.9053 1200.38C12.5448 1164.36 7.22026 1127.95 3.95705 1091.33C2.55216 1075.15 2.12042 1049.45 0.152609 1034.97L0 1033.92L0 966.182C0.926722 961.81 2.43613 927.663 2.96728 920.654C5.10109 892.75 8.44798 864.953 12.9985 837.34C38.4452 681.882 100.42 534.683 193.83 407.84C338.625 210.456 550.866 73.1193 790.248 21.9105C827.999 13.9069 866.162 7.98546 904.563 4.17288C923.118 2.49353 949.053 3.03122 966.232 0Z"/><path fill="#FEFEFE" d="M1141.88 901.737C1180.43 898.947 1214.49 910.074 1242.95 936.522C1269.48 961.169 1284.45 992.924 1285.05 1029.32C1285.42 1051.75 1284.78 1074.26 1285.23 1096.7C1285.54 1115.52 1285.59 1131.91 1271.28 1146.5C1256.96 1161.11 1243.58 1161.47 1224.56 1161.61L1224.53 1136.97C1209.91 1147.06 1201.94 1150.91 1185.19 1156.67C1144.88 1166.21 1106.88 1161.98 1073.39 1136C1045.43 1114.67 1027.26 1082.97 1023.01 1048.06C1013.84 972.428 1067.28 910.189 1141.88 901.737Z"/><path fill="#FF5B00" d="M1149.74 961.172C1188.37 959.116 1221.46 988.548 1223.92 1027.16C1226.39 1065.77 1197.31 1099.17 1158.72 1102.04C1133.4 1103.92 1109.02 1092.05 1094.87 1070.97C1080.73 1049.88 1079 1022.82 1090.35 1000.1C1101.7 977.388 1124.38 962.522 1149.74 961.172Z"/><path fill="#FEFEFE" d="M1686.02 901.745C1708.93 899.82 1735.52 906.232 1755.7 917.026C1786.53 933.455 1809.43 961.62 1819.23 995.152C1775.48 1024.02 1731.49 1052.5 1687.25 1080.6C1666.7 1048.71 1672.75 1015.74 1705.94 994.828C1715.82 988.598 1726.21 981.69 1736.12 975.33C1703.03 952.356 1661.35 957.195 1636.7 989.836C1625.5 1004.71 1620.72 1023.45 1623.44 1041.87C1626.41 1063.09 1637.55 1077.13 1654.09 1089.79C1684.98 1109.4 1718.38 1104.61 1744.59 1079.99C1767.9 1079.74 1791.67 1079.99 1815.02 1080.01C1810.36 1091.47 1804.08 1102.2 1796.38 1111.88C1774.67 1139.25 1742.88 1156.77 1708.14 1160.5C1673.23 1164.36 1638.23 1154.13 1610.89 1132.09C1584.06 1110.45 1567.01 1078.96 1563.54 1044.67C1560 1010.46 1570.31 976.253 1592.16 949.693C1616.75 919.885 1648.07 905.243 1686.02 901.745Z"/><path fill="#FEFEFE" d="M584.568 901.727C649.411 897.269 701.716 933.405 721.947 994.83C679.193 1021.72 631.699 1052.2 589.945 1080.34C589.331 1079.4 588.726 1078.47 588.129 1077.52C579.128 1063.35 575.902 1049.52 579.304 1032.54C584.927 1004.46 615.407 989.938 638.666 975.177C607.762 951.912 566.144 957.222 541.445 986.82C529.521 1001.06 523.81 1019.48 525.593 1037.97C527.577 1059.95 537.9 1074.08 554.276 1087.75C565.283 1095.83 578.416 1100.52 592.055 1101.24C615.154 1102.51 630.884 1094.61 647.477 1079.57L717.699 1079.59C713.31 1090.25 707.554 1100.29 700.577 1109.46C679.66 1136.96 648.682 1155.04 614.447 1159.72C579.332 1164.6 543.73 1155.15 515.654 1133.5C488.392 1112.46 470.678 1081.4 466.462 1047.22C462.154 1013.18 471.625 978.834 492.769 951.813C516.399 921.81 547.097 906.202 584.568 901.727Z"/><path fill="#FEFEFE" d="M856.665 901.71C893.307 897.5 926.225 909.473 954.817 931.76C965.538 919.433 967.182 915.001 971.575 899.446C971.638 917.638 970.16 926.154 967.202 943.984C985.566 963.675 997.154 988.721 1000.27 1015.46C1004.52 1050.1 994.537 1084.98 972.608 1112.13C950.766 1139.34 918.972 1156.72 884.274 1160.41C845.54 1164.6 812.978 1152.78 783.214 1128.58C785.683 1111.75 793.412 1095.94 801.893 1081.41C827.41 1096.5 867.432 1090.46 892.807 1077.49C913.835 1066.75 927.63 1049.73 939.647 1029.97C955.986 999.404 960.845 977.192 967.064 943.961L954.848 932.431C920.71 963.965 878.566 962.397 840.091 986.65C809.249 1006.09 790.086 1030.74 796.434 1068.25C807.692 1055.44 818.008 1048.07 832.651 1039.02C796.79 1073.95 795.987 1074.23 773.874 1119.38C755.799 1100.08 744.119 1075.67 740.429 1049.49C735.503 1015.25 744.486 980.465 765.375 952.895C788.613 922.475 819.257 906.743 856.665 901.71Z"/><path fill="#FEFEFE" d="M298.955 901.716C303.606 901.36 308.269 901.174 312.934 901.159C347.451 901.223 380.522 915.031 404.836 939.532C447.424 982.331 444.073 1025.39 444.038 1079.88L443.939 1161.15C319.065 1162.02 444.601 993.625 327.692 963.279C323.266 962.332 318.761 961.803 314.236 961.7C295.041 961.169 276.457 968.476 262.765 981.94C253.63 990.997 247.147 1002.38 244.019 1014.86C240.97 1027.24 242.091 1060.2 242.127 1074.14L242.135 1161.14L181.356 1161.17C180.525 1118.65 181.691 1075.74 181.212 1033.18C181.106 1023.82 181.944 1014.28 183.844 1005.1C187.735 985.868 195.982 967.781 207.952 952.231C231.1 922.196 261.889 906.682 298.955 901.716Z"/><path fill="#FEFEFE" d="M1459.88 840.014L1521.67 840.09L1521.73 901.389L1569.39 901.459C1569.79 936.52 1562.64 960.443 1521.76 962.059L1521.72 1114.75L1521.72 1161.44C1501.1 1161.4 1480.47 1161.48 1459.85 1161.67C1459.14 1119.2 1459.77 1074.74 1459.76 1032.14L1459.88 840.014Z"/><path fill="#FEFEFE" d="M1426.96 901.731C1429.81 901.439 1435.17 901.485 1438.22 901.41L1438.23 961.733C1418.86 962.968 1402.53 968.57 1388.48 982.369C1363.26 1007.13 1368.2 1044.14 1368.2 1076.42L1368.18 1161.48L1318.96 1161.5L1306.62 1161.61L1306.54 1080.56C1306.51 1032.31 1302.4 992.059 1334.6 951.18C1358.34 921.049 1389.46 906.253 1426.96 901.731Z"/></svg>